<mxfile host="app.diagrams.net" modified="2023-07-13T03:33:06.715Z" agent="Mozilla/5.0 (Macintosh; Intel Mac OS X 10_15_7) AppleWebKit/537.36 (KHTML, like Gecko) Chrome/114.0.0.0 Safari/537.36" version="21.6.1" etag="Bwn_eC3JE6j-VnxY-aMy" type="github">
  <diagram name="第 1 页" id="ICEn_enINgpiXyk_72j_">
    <mxGraphModel>
      <root>
        <mxCell id="0" />
        <mxCell id="1" parent="0" />
      </root>
    </mxGraphModel>
  </diagram>
</mxfile>
